# xmcd
#
# Track frame offsets: 
#        150
#        20765
#        39301
#        55822
#        82869
#        101780
#        123356
#        140880
#        158321
#        179683
#        199854
#
# Disc length: 2881 seconds
#
# Revision: 4
# Processed by: cddbd v1.5.2PL0 Copyright (c) Steve Scherf et al.
# Submitted via: ExactAudioCopy v0.99pb5
#
DISCID=910b3f0b
DTITLE=John Hiatt - The Open Road
DYEAR=2010
DGENRE=Folk-Rock
TTITLE0=The Open Road
TTITLE1=Haulin'
TTITLE2=Go Down Swingin'
TTITLE3=Like a Freight Train
TTITLE4=My Baby
TTITLE5=Homeland
TTITLE6=Wonder of Love
TTITLE7=What Kind of Man
TTITLE8=Movin' On
TTITLE9=Fireball Roberts
TTITLE10=Carry You Back Home
EXTD=
EXTT0=
EXTT1=
EXTT2=
EXTT3=
EXTT4=
EXTT5=
EXTT6=
EXTT7=
EXTT8=
EXTT9=
EXTT10=
PLAYORDER=
